<svg width="150" height="31" viewBox="0 0 150 31" fill="none" xmlns="http://www.w3.org/2000/svg">
<g clip-path="url(#clip0_1053_2643)">
<path d="M72.4537 18.8473C72.4537 21.4819 70.381 22.9484 66.9654 22.9484H62.8622C62.7922 22.9484 62.7251 22.9208 62.6753 22.8716C62.6255 22.8224 62.5971 22.7556 62.5962 22.6856V8.11126C62.5962 8.0407 62.6242 7.97303 62.6741 7.92314C62.724 7.87324 62.7917 7.84521 62.8622 7.84521H66.7124C69.7939 7.84521 71.6396 9.25009 71.6396 11.6672C71.6396 13.3317 70.7735 14.6911 68.7008 15.0999C71.3606 15.499 72.4537 16.9882 72.4537 18.8473ZM63.4947 8.48114V14.8079H66.8811C69.5701 14.8079 70.7443 13.4258 70.7443 11.6543C70.7443 9.58102 69.2879 8.48114 66.7124 8.48114H63.4947ZM71.5552 18.8636C71.5552 16.9623 70.0177 15.473 66.9103 15.473H63.4947V22.319H66.9654C69.8782 22.3027 71.5552 21.112 71.5552 18.8473V18.8636Z" fill="#111111"/>
<path d="M74.5232 18.8181V8.11126C74.5232 8.0407 74.5512 7.97303 74.6011 7.92314C74.651 7.87324 74.7186 7.84521 74.7892 7.84521H75.1557C75.1905 7.84521 75.2249 7.85212 75.257 7.86553C75.2891 7.87893 75.3182 7.89858 75.3426 7.92333C75.3671 7.94808 75.3864 7.97744 75.3994 8.0097C75.4124 8.04196 75.4189 8.07648 75.4184 8.11126V18.8181C75.4184 21.258 76.9884 22.4877 79.4503 22.4877C81.9123 22.4877 83.4822 21.2645 83.4822 18.8181V8.11126C83.4822 8.0407 83.5102 7.97303 83.5601 7.92314C83.61 7.87324 83.6776 7.84521 83.7482 7.84521H84.1147C84.1495 7.84521 84.1839 7.85212 84.216 7.86553C84.2481 7.87893 84.2772 7.89858 84.3017 7.92333C84.3261 7.94808 84.3454 7.97744 84.3584 8.0097C84.3714 8.04196 84.3779 8.07648 84.3774 8.11126V18.8181C84.3774 21.6473 82.4312 23.1593 79.4503 23.1593C76.4694 23.1593 74.5232 21.6538 74.5232 18.8181Z" fill="#111111"/>
<path d="M87.2773 19.4282H87.647C87.7092 19.4274 87.7695 19.4488 87.8171 19.4887C87.8647 19.5286 87.8965 19.5843 87.9065 19.6456C88.2082 21.4592 89.59 22.5397 91.8541 22.5397C94.3452 22.5397 95.7465 21.2419 95.7465 19.5385C95.7465 15.564 87.1508 15.392 87.1508 11.0509C87.1508 9.04252 89.0808 7.57275 91.7989 7.57275C94.3939 7.57275 96.113 8.90949 96.4374 10.999C96.445 11.038 96.4439 11.0783 96.4343 11.1169C96.4246 11.1555 96.4067 11.1915 96.3816 11.2224C96.3566 11.2534 96.3251 11.2784 96.2893 11.2959C96.2536 11.3133 96.2144 11.3227 96.1746 11.3234H95.8081C95.7462 11.3236 95.6862 11.3019 95.6387 11.2621C95.5912 11.2223 95.5593 11.167 95.5486 11.106C95.2502 9.25665 93.9008 8.2541 91.8249 8.2541C89.6127 8.2541 88.046 9.39941 88.046 11.0638C88.046 14.9248 96.6612 15.0676 96.6612 19.5385C96.6612 21.5468 94.8415 23.208 91.8476 23.208C89.0451 23.208 87.3065 21.7967 87.008 19.7364C87.0024 19.6979 87.0052 19.6587 87.0162 19.6214C87.0272 19.5841 87.0461 19.5496 87.0717 19.5203C87.0973 19.491 87.1289 19.4676 87.1644 19.4517C87.1999 19.4358 87.2384 19.4278 87.2773 19.4282Z" fill="#111111"/>
<path d="M100.421 8.11126V22.7115C100.42 22.7815 100.391 22.8484 100.342 22.8976C100.292 22.9468 100.225 22.9743 100.155 22.9743H99.7881C99.7184 22.9743 99.6516 22.9467 99.6023 22.8974C99.553 22.8481 99.5253 22.7812 99.5253 22.7115V8.11126C99.5249 8.07648 99.5314 8.04196 99.5444 8.0097C99.5574 7.97744 99.5767 7.94808 99.6012 7.92333C99.6256 7.89858 99.6547 7.87893 99.6868 7.86553C99.7189 7.85212 99.7533 7.84521 99.7881 7.84521H100.155C100.225 7.84521 100.293 7.87324 100.343 7.92314C100.393 7.97303 100.421 8.0407 100.421 8.11126Z" fill="#111111"/>
<path d="M114.67 8.11128V22.7116C114.67 22.7463 114.663 22.7808 114.65 22.8129C114.636 22.845 114.617 22.8741 114.592 22.8985C114.567 22.923 114.538 22.9423 114.506 22.9553C114.473 22.9683 114.439 22.9748 114.404 22.9744H113.895C113.849 22.9739 113.805 22.962 113.765 22.9399C113.726 22.9178 113.692 22.8862 113.668 22.8478L106.691 11.3947C106.298 10.7458 105.766 9.81789 105.458 9.25659H105.419C105.419 9.99309 105.445 10.8788 105.445 11.6316V22.6856C105.445 22.7553 105.417 22.8221 105.368 22.8714C105.319 22.9207 105.252 22.9484 105.182 22.9484H104.816C104.746 22.9484 104.679 22.9208 104.629 22.8716C104.579 22.8224 104.551 22.7556 104.55 22.6856V8.11128C104.55 8.04072 104.578 7.97305 104.628 7.92315C104.678 7.87326 104.745 7.84523 104.816 7.84523H105.325C105.371 7.84513 105.415 7.85671 105.455 7.87887C105.495 7.90102 105.528 7.93301 105.552 7.97176L112.474 19.3275C112.892 20.0186 113.424 20.9044 113.791 21.5306H113.817C113.791 20.8817 113.733 20.0186 113.733 19.3048V8.11128C113.733 8.04072 113.761 7.97305 113.81 7.92315C113.86 7.87326 113.928 7.84523 113.999 7.84523H114.391C114.427 7.84299 114.463 7.84824 114.497 7.86065C114.531 7.87305 114.562 7.89235 114.589 7.91733C114.615 7.94231 114.636 7.97243 114.65 8.0058C114.664 8.03918 114.671 8.07509 114.67 8.11128Z" fill="#111111"/>
<path d="M127.015 22.5655V22.6856C127.015 22.7553 126.988 22.8221 126.938 22.8714C126.889 22.9207 126.822 22.9484 126.753 22.9484H118.517C118.447 22.9484 118.38 22.9207 118.331 22.8714C118.282 22.8221 118.254 22.7553 118.254 22.6856V8.11126C118.254 8.07648 118.26 8.04196 118.273 8.0097C118.286 7.97744 118.306 7.94808 118.33 7.92333C118.354 7.89858 118.384 7.87893 118.416 7.86553C118.448 7.85212 118.482 7.84521 118.517 7.84521H126.668C126.703 7.84521 126.738 7.85212 126.77 7.86553C126.802 7.87893 126.831 7.89858 126.855 7.92333C126.88 7.94808 126.899 7.97744 126.912 8.0097C126.925 8.04196 126.931 8.07648 126.931 8.11126V8.22807C126.931 8.29807 126.903 8.36525 126.854 8.41505C126.805 8.46486 126.738 8.49326 126.668 8.49412H119.15V14.9247H126.081C126.151 14.9247 126.218 14.9524 126.267 15.0017C126.316 15.051 126.344 15.1178 126.344 15.1875V15.3076C126.344 15.3773 126.316 15.4441 126.267 15.4934C126.218 15.5427 126.151 15.5704 126.081 15.5704H119.15V22.3027H126.753C126.822 22.3027 126.889 22.3304 126.938 22.3797C126.988 22.429 127.015 22.4958 127.015 22.5655Z" fill="#111111"/>
<path d="M129.098 19.4282H129.468C129.53 19.428 129.59 19.4497 129.637 19.4895C129.685 19.5293 129.716 19.5845 129.727 19.6456C130.029 21.4592 131.411 22.5397 133.671 22.5397C136.166 22.5397 137.564 21.2419 137.564 19.5385C137.564 15.564 128.968 15.392 128.968 11.0509C128.968 9.04252 130.914 7.57275 133.616 7.57275C136.211 7.57275 137.93 8.90949 138.255 10.999C138.263 11.0381 138.262 11.0785 138.253 11.1174C138.243 11.1563 138.226 11.1925 138.2 11.2236C138.175 11.2547 138.143 11.2797 138.107 11.297C138.071 11.3143 138.032 11.3233 137.992 11.3234H137.629C137.567 11.3231 137.506 11.3012 137.459 11.2616C137.411 11.222 137.378 11.167 137.366 11.106C137.071 9.25665 135.721 8.2541 133.645 8.2541C131.433 8.2541 129.867 9.39941 129.867 11.0638C129.873 14.9248 138.504 15.0676 138.504 19.5385C138.504 21.5468 136.685 23.208 133.688 23.208C130.885 23.208 129.146 21.7967 128.851 19.7364C128.846 19.6998 128.848 19.6624 128.858 19.6266C128.867 19.5908 128.884 19.5574 128.907 19.5285C128.931 19.4996 128.959 19.4757 128.992 19.4585C129.025 19.4412 129.061 19.4309 129.098 19.4282Z" fill="#111111"/>
<path d="M140.61 19.4282H140.979C141.041 19.4274 141.102 19.4488 141.149 19.4887C141.197 19.5286 141.229 19.5843 141.239 19.6456C141.541 21.4592 142.922 22.5397 145.186 22.5397C147.678 22.5397 149.079 21.2419 149.079 19.5385C149.079 15.564 140.486 15.392 140.486 11.0509C140.486 9.04252 142.416 7.57275 145.131 7.57275C147.726 7.57275 149.449 8.90949 149.77 10.999C149.778 11.0379 149.778 11.0783 149.769 11.1172C149.76 11.156 149.743 11.1924 149.718 11.2236C149.693 11.2547 149.661 11.2799 149.625 11.2971C149.589 11.3144 149.55 11.3234 149.51 11.3234H149.144C149.082 11.3236 149.022 11.3019 148.974 11.2621C148.927 11.2223 148.895 11.167 148.884 11.106C148.586 9.25665 147.236 8.2541 145.16 8.2541C142.948 8.2541 141.382 9.39941 141.382 11.0638C141.382 14.928 150.003 15.0805 150.003 19.5515C150.003 21.5598 148.184 23.221 145.19 23.221C142.387 23.221 140.649 21.8096 140.35 19.7494C140.342 19.7107 140.343 19.6709 140.353 19.6327C140.362 19.5945 140.38 19.5588 140.405 19.5282C140.43 19.4975 140.461 19.4727 140.496 19.4554C140.531 19.4382 140.57 19.4289 140.61 19.4282Z" fill="#111111"/>
<path d="M28.9075 21.738V22.9417C28.9035 22.98 28.8919 23.0172 28.8733 23.0509C28.8547 23.0847 28.8296 23.1144 28.7994 23.1383C28.7691 23.1621 28.7344 23.1797 28.6973 23.19C28.6602 23.2003 28.6214 23.203 28.5832 23.198H19.8253C19.7871 23.203 19.7483 23.2003 19.7111 23.19C19.674 23.1797 19.6393 23.1621 19.6091 23.1383C19.5789 23.1144 19.5537 23.0847 19.5351 23.0509C19.5166 23.0172 19.5049 22.98 19.5009 22.9417V7.91965C19.5045 7.88104 19.5159 7.84355 19.5343 7.80942C19.5527 7.77529 19.5777 7.74521 19.608 7.72099C19.6383 7.69677 19.6731 7.67889 19.7105 7.66843C19.7478 7.65796 19.7868 7.65513 19.8253 7.66009H28.2945C28.3329 7.65513 28.372 7.65796 28.4093 7.66843C28.4466 7.67889 28.4815 7.69677 28.5118 7.72099C28.542 7.74521 28.5671 7.77529 28.5855 7.80942C28.6039 7.84355 28.6153 7.88104 28.6189 7.91965V9.08442C28.6149 9.12275 28.6032 9.15988 28.5846 9.19364C28.5661 9.2274 28.5409 9.25709 28.5107 9.28098C28.4805 9.30486 28.4458 9.32246 28.4086 9.33272C28.3715 9.34299 28.3327 9.34571 28.2945 9.34074H21.7326V14.4671H27.795C27.8334 14.4621 27.8725 14.4649 27.9098 14.4754C27.9471 14.4859 27.982 14.5037 28.0122 14.528C28.0425 14.5522 28.0676 14.5823 28.086 14.6164C28.1044 14.6505 28.1157 14.688 28.1193 14.7266V15.8979C28.1157 15.9365 28.1044 15.974 28.086 16.0081C28.0676 16.0422 28.0425 16.0723 28.0122 16.0965C27.982 16.1208 27.9471 16.1386 27.9098 16.1491C27.8725 16.1596 27.8334 16.1624 27.795 16.1574H21.7326V21.4882H28.5929C28.6677 21.4799 28.7427 21.5016 28.8016 21.5483C28.8605 21.5951 28.8986 21.6633 28.9075 21.738Z" fill="#111111"/>
<path d="M42.8163 22.877L38.0871 7.85494C38.0613 7.79588 38.0186 7.74582 37.9643 7.71115C37.91 7.67648 37.8466 7.65877 37.7822 7.66027H35.836C35.7684 7.65471 35.7007 7.67049 35.6425 7.70542C35.5843 7.74034 35.5385 7.79263 35.5116 7.85494L30.8148 22.877C30.8056 22.9535 30.8271 23.0306 30.8745 23.0914C30.9219 23.1522 30.9914 23.1917 31.0678 23.2015C31.0849 23.2047 31.1026 23.2047 31.1197 23.2015H32.8032C32.8685 23.2056 32.9334 23.1886 32.9883 23.1529C33.0432 23.1173 33.0852 23.0649 33.1081 23.0035L33.9968 20.0251C34.0223 19.9649 34.0653 19.9138 34.1203 19.8785C34.1753 19.8432 34.2397 19.8253 34.305 19.8272H39.3262C39.3909 19.8259 39.4546 19.8441 39.5089 19.8794C39.5633 19.9147 39.6058 19.9654 39.6311 20.0251L40.5198 23.0035C40.5428 23.0655 40.5853 23.1182 40.6409 23.1539C40.6965 23.1896 40.7621 23.2063 40.828 23.2015H42.492C42.5309 23.2064 42.5705 23.2034 42.6082 23.1925C42.646 23.1816 42.6811 23.1632 42.7114 23.1383C42.7418 23.1134 42.7668 23.0825 42.7848 23.0477C42.8028 23.0128 42.8136 22.9746 42.8163 22.9354C42.8181 22.916 42.8181 22.8964 42.8163 22.877ZM34.5385 17.9648L36.8091 9.93143L39.0796 17.9648H34.5385Z" fill="#111111"/>
<path d="M54.6947 21.7383V22.942C54.6907 22.9804 54.679 23.0175 54.6605 23.0512C54.6419 23.085 54.6167 23.1147 54.5865 23.1386C54.5563 23.1625 54.5216 23.1801 54.4844 23.1903C54.4473 23.2006 54.4085 23.2033 54.3703 23.1983H44.9637C44.9255 23.2033 44.8867 23.2006 44.8495 23.1903C44.8124 23.1801 44.7777 23.1625 44.7475 23.1386C44.7172 23.1147 44.6921 23.085 44.6735 23.0512C44.655 23.0175 44.6433 22.9804 44.6393 22.942V21.946C44.6394 21.9073 44.6494 21.8693 44.6685 21.8357L51.8046 9.37675H45.3172C45.2789 9.38126 45.24 9.3781 45.2028 9.36746C45.1657 9.35681 45.131 9.3389 45.1008 9.31476C45.0707 9.29061 45.0456 9.26072 45.0271 9.2268C45.0085 9.19289 44.9969 9.15563 44.9929 9.11719V7.92322C44.9969 7.88489 45.0085 7.84776 45.0271 7.814C45.0457 7.78024 45.0708 7.75055 45.101 7.72666C45.1313 7.70278 45.166 7.68518 45.2031 7.67492C45.2402 7.66466 45.279 7.66193 45.3172 7.6669H54.1984C54.2367 7.66146 54.2756 7.66386 54.313 7.67394C54.3503 7.68402 54.3852 7.70157 54.4155 7.72554C54.4458 7.74951 54.471 7.77939 54.4894 7.81337C54.5078 7.84735 54.5192 7.88472 54.5228 7.92322V8.85115C54.523 8.88986 54.5129 8.92794 54.4936 8.96146L47.3575 21.4885H54.38C54.4546 21.4811 54.5292 21.5031 54.5879 21.5497C54.6466 21.5963 54.6849 21.664 54.6947 21.7383Z" fill="#111111"/>
<path d="M59.1158 7.91965V22.9417C59.1118 22.98 59.1001 23.0172 59.0816 23.0509C59.063 23.0847 59.0378 23.1144 59.0076 23.1383C58.9774 23.1621 58.9427 23.1797 58.9055 23.19C58.8684 23.2003 58.8296 23.203 58.7914 23.198H57.1955C57.1573 23.203 57.1185 23.2003 57.0814 23.19C57.0442 23.1797 57.0095 23.1621 56.9793 23.1383C56.9491 23.1144 56.9239 23.0847 56.9054 23.0509C56.8868 23.0172 56.8752 22.98 56.8712 22.9417V7.91965C56.8748 7.88104 56.8861 7.84355 56.9045 7.80942C56.9229 7.77529 56.948 7.74521 56.9783 7.72099C57.0085 7.69677 57.0434 7.67889 57.0807 7.66843C57.118 7.65796 57.1571 7.65513 57.1955 7.66009H58.7914C58.8299 7.65513 58.8689 7.65796 58.9062 7.66843C58.9436 7.67889 58.9784 7.69677 59.0087 7.72099C59.0389 7.74521 59.064 7.77529 59.0824 7.80942C59.1008 7.84355 59.1122 7.88104 59.1158 7.91965Z" fill="#111111"/>
<path d="M7.63559 0C5.6105 0 3.66836 0.80467 2.23641 2.23699C0.804461 3.66931 0 5.61196 0 7.63757L0 22.9159C-1.49417e-08 23.9189 0.1975 24.9121 0.581224 25.8387C0.964948 26.7653 1.52738 27.6073 2.23641 28.3165C2.94544 29.0257 3.78718 29.5883 4.71357 29.9721C5.63996 30.356 6.63287 30.5535 7.63559 30.5535C8.6383 30.5535 9.6312 30.356 10.5576 29.9721C11.484 29.5883 12.3257 29.0257 13.0348 28.3165C13.7438 27.6073 14.3062 26.7653 14.6899 25.8387C15.0737 24.9121 15.2712 23.9189 15.2712 22.9159V7.63757C15.2712 5.61196 14.4667 3.66931 13.0348 2.23699C11.6028 0.80467 9.66067 0 7.63559 0Z" fill="url(#paint0_linear_1053_2643)"/>
<path d="M7.59668 11.5372C6.99766 11.5364 6.40758 11.3919 5.87593 11.1158C5.34428 10.8397 4.88655 10.4402 4.54115 9.95066L11.3853 8.14023L14.1002 7.40697C14.0563 6.50416 13.8255 5.62029 13.4223 4.81137C12.7575 3.50939 11.6745 2.46863 10.3474 1.85618C9.02018 1.24372 7.52577 1.0951 6.10402 1.43416C4.68227 1.77323 3.41565 2.58031 2.50752 3.72585C1.59938 4.87138 1.10241 6.28892 1.09637 7.75089V8.09156C1.17509 9.76074 1.89643 11.3347 3.10934 12.4838C4.32224 13.6329 5.93261 14.268 7.60316 14.2561C8.46403 14.2555 9.31631 14.0849 10.1112 13.7542C10.906 13.4235 11.6278 12.9391 12.2351 12.3289L10.3116 10.4049C9.58571 11.1172 8.6135 11.5227 7.59668 11.5372ZM7.59668 3.95482C8.19481 3.95609 8.78397 4.10047 9.31495 4.37591C9.84593 4.65135 10.3033 5.04985 10.649 5.53814L3.80483 7.34857C3.89735 6.41076 4.33822 5.54178 5.04031 4.9134C5.74241 4.28502 6.65463 3.94295 7.59668 3.95482Z" fill="white"/>
</g>
<defs>
<linearGradient id="paint0_linear_1053_2643" x1="7.63558" y1="30.5535" x2="7.63558" y2="0" gradientUnits="userSpaceOnUse">
<stop stop-color="#00B8FF"/>
<stop offset="1" stop-color="#00E36C"/>
</linearGradient>
<clipPath id="clip0_1053_2643">
<rect width="150" height="30.5535" fill="white"/>
</clipPath>
</defs>
</svg>
