<svg width="512" height="43" viewBox="0 0 512 43" fill="none" xmlns="http://www.w3.org/2000/svg">
<path d="M16.7747 42.0239C11.3186 42.0239 7.15877 40.7856 4.29526 38.3091C1.43175 35.7938 0 32.0984 0 27.2227V14.8012C0 9.92554 1.43175 6.24941 4.29526 3.77286C7.15877 1.25762 11.3186 0 16.7747 0C20.567 0 23.6626 0.638485 26.0618 1.91545C28.4996 3.15373 30.4344 5.03049 31.8662 7.54573L26.0037 11.6088C24.8042 9.7514 23.5465 8.41639 22.2309 7.60377C20.9539 6.79115 19.1352 6.38485 16.7747 6.38485C13.7951 6.38485 11.6088 7.10072 10.2158 8.53248C8.8614 9.92554 8.18421 12.0151 8.18421 14.8012V27.2227C8.18421 30.0088 8.8614 32.1177 10.2158 33.5495C11.6088 34.9425 13.7951 35.6391 16.7747 35.6391C19.3287 35.6391 21.3022 35.2134 22.6952 34.3621C24.127 33.4721 25.404 32.0597 26.5261 30.1249L32.3306 34.4201C31.0923 36.2002 29.8153 37.6319 28.4996 38.7154C27.184 39.7989 25.5781 40.6309 23.682 41.2113C21.8246 41.753 19.5222 42.0239 16.7747 42.0239Z" fill="#0F0920"/>
<path d="M53.5584 42.0239C48.1796 42.0239 44.0585 40.7856 41.195 38.3091C38.3702 35.7938 36.9578 32.0984 36.9578 27.2227V14.8012C36.9578 9.92554 38.3702 6.24941 41.195 3.77286C44.0585 1.25762 48.1796 0 53.5584 0C58.9371 0 63.0389 1.25762 65.8637 3.77286C68.7272 6.24941 70.159 9.92554 70.159 14.8012V27.2227C70.159 32.0984 68.7272 35.7938 65.8637 38.3091C63.0389 40.7856 58.9371 42.0239 53.5584 42.0239ZM53.5584 35.6391C56.2671 35.6391 58.3373 34.9232 59.7691 33.4914C61.2395 32.021 61.9747 29.9314 61.9747 27.2227V14.8012C61.9747 12.0925 61.2395 10.0223 59.7691 8.59052C58.3373 7.12007 56.2671 6.38485 53.5584 6.38485C50.8496 6.38485 48.76 7.12007 47.2896 8.59052C45.8578 10.0223 45.142 12.0925 45.142 14.8012V27.2227C45.142 29.9314 45.8578 32.021 47.2896 33.4914C48.76 34.9232 50.8496 35.6391 53.5584 35.6391Z" fill="#0F0920"/>
<path d="M91.034 42.0239C88.2479 42.0239 85.9067 41.7143 84.0106 41.0952C82.1532 40.4761 80.586 39.6248 79.3091 38.5413C78.0321 37.4578 76.7164 36.0067 75.3621 34.188L80.8763 29.6025C82.4628 31.8082 83.9913 33.3753 85.4617 34.304C86.9709 35.1941 88.8283 35.6391 91.034 35.6391C94.091 35.6391 96.316 35.1941 97.709 34.304C99.1021 33.414 99.7986 31.9823 99.7986 30.0088C99.7986 29.0027 99.4697 28.1901 98.8119 27.5709C98.154 26.9131 97.0125 26.3133 95.3873 25.7716C93.8007 25.2298 91.4209 24.63 88.2479 23.9722C84.533 23.1983 81.7663 21.8246 79.9476 19.8511C78.1675 17.8389 77.2775 15.1689 77.2775 11.841C77.2775 9.44183 77.8773 7.35225 79.0769 5.57223C80.3152 3.79221 82.0565 2.4185 84.3009 1.4511C86.5452 0.4837 89.1572 0 92.1368 0C96.0064 0 99.0828 0.58044 101.366 1.74132C103.649 2.86351 105.506 4.52744 106.938 6.73311L101.54 11.1445C100.34 9.94488 99.3343 9.03553 98.5217 8.41639C97.7477 7.75856 96.8577 7.25551 95.8516 6.90724C94.8455 6.55898 93.6073 6.38485 92.1368 6.38485C89.9311 6.38485 88.2672 6.86855 87.145 7.83595C86.0228 8.80335 85.4617 10.1964 85.4617 12.0151C85.4617 13.7177 86.1776 14.9754 87.6094 15.788C89.0411 16.5619 90.8792 17.2004 93.1236 17.7034C96.4514 18.4 99.1021 19.1158 101.076 19.8511C103.049 20.5863 104.694 21.7665 106.009 23.3918C107.325 25.017 107.983 27.242 107.983 30.0668C107.983 34.0912 106.57 37.0902 103.746 39.0637C100.96 41.0372 96.7223 42.0239 91.034 42.0239Z" fill="#0F0920"/>
<path d="M122.393 7.08138H110.145V0.696527H142.824V7.08138H130.577V41.3274H122.393V7.08138Z" fill="#0F0920"/>
<path d="M180.484 41.9659C175.105 41.9659 171.003 40.7082 168.179 38.193C165.393 35.6778 163.999 32.0016 163.999 27.1646V14.8012C163.999 10.0416 165.354 6.40419 168.063 3.88895C170.81 1.33501 174.757 0.0580433 179.904 0.0580433C183.27 0.0580433 186.153 0.599788 188.552 1.68328C190.951 2.72807 192.925 4.37265 194.473 6.61702L191.512 8.76465C190.158 6.94594 188.552 5.61092 186.695 4.75961C184.876 3.8696 182.67 3.4246 180.078 3.4246C176.208 3.4246 173.248 4.392 171.197 6.3268C169.185 8.2616 168.179 11.0864 168.179 14.8012V27.1646C168.179 30.9181 169.204 33.7623 171.255 35.6971C173.345 37.6319 176.402 38.5993 180.426 38.5993C183.096 38.5993 185.36 38.1543 187.217 37.2643C189.075 36.3743 190.68 34.9812 192.035 33.0851L194.995 35.3488C193.254 37.6706 191.241 39.3539 188.958 40.3987C186.675 41.4435 183.851 41.9659 180.484 41.9659Z" fill="#4A4A4A"/>
<path d="M225.168 28.2675H206.826L202.821 41.3274H198.642L209.148 7.3716C210 4.62418 210.909 2.72807 211.876 1.68328C212.882 0.599788 214.256 0.0580433 215.997 0.0580433C217.739 0.0580433 219.112 0.599788 220.119 1.68328C221.125 2.72807 222.053 4.62418 222.905 7.3716L233.411 41.3274H229.173L225.168 28.2675ZM224.182 25.017L218.784 7.42964C218.358 6.11397 217.952 5.20462 217.565 4.70157C217.178 4.19852 216.655 3.94699 215.997 3.94699C215.378 3.94699 214.875 4.19852 214.488 4.70157C214.101 5.20462 213.695 6.11397 213.269 7.42964L207.871 25.017H224.182Z" fill="#4A4A4A"/>
<path d="M251.21 41.3274C246.76 41.3274 243.451 40.3406 241.284 38.3671C239.156 36.3549 238.092 33.2979 238.092 29.1962V0.696527H242.271V29.1962C242.271 32.1758 242.987 34.3814 244.419 35.8132C245.889 37.2449 248.153 37.9608 251.21 37.9608H264.27V41.3274H251.21Z" fill="#4A4A4A"/>
<path d="M284.782 41.9659C279.403 41.9659 275.301 40.7082 272.477 38.193C269.69 35.6778 268.297 32.0016 268.297 27.1646V14.8012C268.297 10.0416 269.652 6.40419 272.36 3.88895C275.108 1.33501 279.055 0.0580433 284.201 0.0580433C287.568 0.0580433 290.451 0.599788 292.85 1.68328C295.249 2.72807 297.223 4.37265 298.771 6.61702L295.81 8.76465C294.456 6.94594 292.85 5.61092 290.993 4.75961C289.174 3.8696 286.968 3.4246 284.376 3.4246C280.506 3.4246 277.546 4.392 275.495 6.3268C273.483 8.2616 272.477 11.0864 272.477 14.8012V27.1646C272.477 30.9181 273.502 33.7623 275.553 35.6971C277.643 37.6319 280.699 38.5993 284.724 38.5993C287.394 38.5993 289.658 38.1543 291.515 37.2643C293.372 36.3743 294.978 34.9812 296.333 33.0851L299.293 35.3488C297.552 37.6706 295.539 39.3539 293.256 40.3987C290.973 41.4435 288.148 41.9659 284.782 41.9659Z" fill="#4A4A4A"/>
<path d="M320.644 41.9659C315.845 41.9659 312.072 40.9404 309.325 38.8895C306.616 36.7999 305.262 33.9364 305.262 30.299V0.696527H309.441V30.299C309.441 32.8916 310.428 34.9232 312.401 36.3936C314.375 37.8641 317.122 38.5993 320.644 38.5993C324.165 38.5993 326.912 37.8641 328.886 36.3936C330.859 34.9232 331.846 32.8916 331.846 30.299V0.696527H336.025V30.299C336.025 33.9364 334.652 36.7999 331.904 38.8895C329.195 40.9404 325.442 41.9659 320.644 41.9659Z" fill="#4A4A4A"/>
<path d="M357.265 41.3274C352.815 41.3274 349.506 40.3406 347.339 38.3671C345.211 36.3549 344.147 33.2979 344.147 29.1962V0.696527H348.326V29.1962C348.326 32.1758 349.042 34.3814 350.474 35.8132C351.944 37.2449 354.208 37.9608 357.265 37.9608H370.325V41.3274H357.265Z" fill="#4A4A4A"/>
<path d="M400.604 28.2675H382.262L378.257 41.3274H374.078L384.584 7.3716C385.435 4.62418 386.345 2.72807 387.312 1.68328C388.318 0.599788 389.692 0.0580433 391.433 0.0580433C393.175 0.0580433 394.548 0.599788 395.555 1.68328C396.561 2.72807 397.489 4.62418 398.341 7.3716L408.847 41.3274H404.609L400.604 28.2675ZM399.618 25.017L394.219 7.42964C393.794 6.11397 393.388 5.20462 393.001 4.70157C392.614 4.19852 392.091 3.94699 391.433 3.94699C390.814 3.94699 390.311 4.19852 389.924 4.70157C389.537 5.20462 389.131 6.11397 388.705 7.42964L383.307 25.017H399.618Z" fill="#4A4A4A"/>
<path d="M419.734 4.06308H406.558V0.696527H437.089V4.06308H423.913V41.3274H419.734V4.06308Z" fill="#4A4A4A"/>
<path d="M456.238 41.9659C451.091 41.9659 447.144 40.7082 444.397 38.193C441.649 35.6391 440.276 31.9629 440.276 27.1646V14.8593C440.276 10.061 441.649 6.40419 444.397 3.88895C447.144 1.33501 451.091 0.0580433 456.238 0.0580433C461.384 0.0580433 465.331 1.33501 468.079 3.88895C470.826 6.40419 472.2 10.061 472.2 14.8593V27.1646C472.2 31.9629 470.826 35.6391 468.079 38.193C465.331 40.7082 461.384 41.9659 456.238 41.9659ZM456.238 38.5993C460.03 38.5993 462.932 37.6126 464.944 35.6391C466.995 33.6656 468.021 30.8408 468.021 27.1646V14.8593C468.021 11.1832 466.995 8.35835 464.944 6.38485C462.932 4.41135 460.03 3.4246 456.238 3.4246C452.446 3.4246 449.524 4.41135 447.473 6.38485C445.461 8.35835 444.455 11.1832 444.455 14.8593V27.1646C444.455 30.8408 445.461 33.6656 447.473 35.6391C449.524 37.6126 452.446 38.5993 456.238 38.5993Z" fill="#4A4A4A"/>
<path d="M512 41.3274H507.531L504.745 30.8794C504.203 28.8673 503.584 27.3001 502.887 26.1779C502.191 25.0557 501.223 24.2431 499.985 23.74C498.785 23.1983 497.141 22.9274 495.051 22.9274H485.648V41.3274H481.469V0.696527H498.882C502.674 0.696527 505.557 1.64458 507.531 3.54069C509.543 5.43679 510.549 8.10682 510.549 11.5508C510.549 14.453 509.852 16.7747 508.459 18.5161C507.105 20.2187 505.17 21.2828 502.655 21.7085C504.358 22.3276 505.673 23.3531 506.602 24.7848C507.569 26.2166 508.421 28.2481 509.156 30.8794L512 41.3274ZM498.418 19.5609C500.933 19.5609 502.887 18.8837 504.28 17.5293C505.673 16.1749 506.37 14.2788 506.37 11.841C506.37 9.36444 505.673 7.44899 504.28 6.09463C502.887 4.74026 500.933 4.06308 498.418 4.06308H485.648V19.5609H498.418Z" fill="#4A4A4A"/>
</svg>
