<svg width="562" height="94" viewBox="0 0 562 94" fill="none" xmlns="http://www.w3.org/2000/svg">
<g clip-path="url(#clip0_1118_757)">
<rect width="562" height="94" rx="14" fill="url(#paint0_linear_1118_757)"/>
<circle cx="514" cy="-11" r="87" fill="url(#paint1_linear_1118_757)"/>
<ellipse cx="200.5" cy="88.5" rx="83.5" ry="81.5" fill="url(#paint2_linear_1118_757)"/>
<ellipse cx="47.5" cy="88.5" rx="36.5" ry="35.5" fill="url(#paint3_linear_1118_757)"/>
<path d="M174.437 56.8397C172.018 56.8397 170.174 56.2907 168.904 55.1927C167.635 54.0775 167 52.4391 167 50.2774V44.7703C167 42.6086 167.635 40.9787 168.904 39.8807C170.174 38.7656 172.018 38.208 174.437 38.208C176.119 38.208 177.491 38.4911 178.555 39.0572C179.636 39.6062 180.493 40.4383 181.128 41.5535L178.529 43.3549C177.997 42.5314 177.44 41.9395 176.856 41.5792C176.29 41.2189 175.484 41.0388 174.437 41.0388C173.116 41.0388 172.147 41.3562 171.529 41.991C170.929 42.6086 170.629 43.535 170.629 44.7703V50.2774C170.629 51.5127 170.929 52.4477 171.529 53.0825C172.147 53.7001 173.116 54.0089 174.437 54.0089C175.57 54.0089 176.445 53.8202 177.062 53.4428C177.697 53.0482 178.263 52.422 178.761 51.5642L181.334 53.4685C180.785 54.2577 180.219 54.8925 179.636 55.3728C179.052 55.8532 178.34 56.2221 177.5 56.4794C176.676 56.7196 175.655 56.8397 174.437 56.8397Z" fill="#00797D"/>
<path d="M190.746 56.8397C188.361 56.8397 186.534 56.2907 185.264 55.1927C184.012 54.0775 183.386 52.4391 183.386 50.2774V44.7703C183.386 42.6086 184.012 40.9787 185.264 39.8807C186.534 38.7656 188.361 38.208 190.746 38.208C193.13 38.208 194.949 38.7656 196.201 39.8807C197.471 40.9787 198.106 42.6086 198.106 44.7703V50.2774C198.106 52.4391 197.471 54.0775 196.201 55.1927C194.949 56.2907 193.13 56.8397 190.746 56.8397ZM190.746 54.0089C191.947 54.0089 192.864 53.6915 193.499 53.0567C194.151 52.4048 194.477 51.4784 194.477 50.2774V44.7703C194.477 43.5693 194.151 42.6515 193.499 42.0167C192.864 41.3648 191.947 41.0388 190.746 41.0388C189.545 41.0388 188.618 41.3648 187.966 42.0167C187.332 42.6515 187.014 43.5693 187.014 44.7703V50.2774C187.014 51.4784 187.332 52.4048 187.966 53.0567C188.618 53.6915 189.545 54.0089 190.746 54.0089Z" fill="#00797D"/>
<path d="M207.361 56.8397C206.126 56.8397 205.088 56.7025 204.247 56.428C203.423 56.1535 202.729 55.776 202.162 55.2956C201.596 54.8153 201.013 54.1719 200.412 53.3656L202.857 51.3325C203.561 52.3104 204.238 53.0053 204.89 53.417C205.559 53.8116 206.383 54.0089 207.361 54.0089C208.716 54.0089 209.703 53.8116 210.32 53.417C210.938 53.0224 211.247 52.3877 211.247 51.5127C211.247 51.0666 211.101 50.7063 210.809 50.4318C210.518 50.1402 210.011 49.8743 209.291 49.6341C208.587 49.3939 207.532 49.128 206.126 48.8363C204.479 48.4932 203.252 47.8841 202.445 47.0092C201.656 46.117 201.262 44.9333 201.262 43.4578C201.262 42.3941 201.528 41.4677 202.059 40.6785C202.608 39.8893 203.381 39.2803 204.376 38.8514C205.371 38.4225 206.529 38.208 207.85 38.208C209.565 38.208 210.929 38.4654 211.941 38.98C212.954 39.4776 213.777 40.2153 214.412 41.1932L212.019 43.149C211.487 42.6172 211.041 42.214 210.68 41.9395C210.337 41.6478 209.943 41.4248 209.497 41.2704C209.051 41.116 208.502 41.0388 207.85 41.0388C206.872 41.0388 206.134 41.2532 205.637 41.6821C205.139 42.1111 204.89 42.7287 204.89 43.535C204.89 44.2899 205.208 44.8475 205.842 45.2078C206.477 45.5509 207.292 45.834 208.287 46.057C209.763 46.3658 210.938 46.6832 211.813 47.0092C212.688 47.3351 213.417 47.8584 214 48.579C214.584 49.2995 214.875 50.286 214.875 51.5384C214.875 53.3227 214.249 54.6523 212.997 55.5272C211.761 56.4022 209.883 56.8397 207.361 56.8397Z" fill="#00797D"/>
<path d="M221.264 41.3476H215.834V38.5168H230.322V41.3476H224.893V56.5309H221.264V41.3476Z" fill="#00797D"/>
<path d="M247.019 56.814C244.635 56.814 242.816 56.2564 241.564 55.1412C240.328 54.0261 239.711 52.3962 239.711 50.2517V44.7703C239.711 42.6601 240.311 41.0474 241.512 39.9322C242.73 38.7999 244.48 38.2337 246.762 38.2337C248.255 38.2337 249.533 38.4739 250.596 38.9543C251.66 39.4175 252.535 40.1467 253.221 41.1417L251.909 42.0939C251.308 41.2876 250.596 40.6957 249.773 40.3182C248.966 39.9236 247.989 39.7263 246.839 39.7263C245.123 39.7263 243.811 40.1552 242.902 41.0131C242.01 41.8709 241.564 43.1233 241.564 44.7703V50.2517C241.564 51.9159 242.018 53.1768 242.927 54.0347C243.854 54.8925 245.209 55.3214 246.994 55.3214C248.177 55.3214 249.181 55.1241 250.004 54.7295C250.828 54.3349 251.54 53.7173 252.14 52.8766L253.453 53.8802C252.681 54.9096 251.789 55.6559 250.776 56.1191C249.764 56.5824 248.512 56.814 247.019 56.814Z" fill="#00797D"/>
<path d="M266.831 50.7407H258.698L256.923 56.5309H255.07L259.728 41.4763C260.105 40.2582 260.508 39.4175 260.937 38.9543C261.383 38.4739 261.992 38.2337 262.764 38.2337C263.537 38.2337 264.146 38.4739 264.592 38.9543C265.038 39.4175 265.449 40.2582 265.827 41.4763L270.485 56.5309H268.606L266.831 50.7407ZM266.393 49.2995L264 41.502C263.811 40.9187 263.631 40.5155 263.459 40.2925C263.288 40.0695 263.056 39.9579 262.764 39.9579C262.49 39.9579 262.267 40.0695 262.095 40.2925C261.924 40.5155 261.744 40.9187 261.555 41.502L259.162 49.2995H266.393Z" fill="#00797D"/>
<path d="M278.376 56.5309C276.403 56.5309 274.936 56.0934 273.976 55.2184C273.032 54.3263 272.56 52.971 272.56 51.1524V38.5168H274.413V51.1524C274.413 52.4734 274.731 53.4513 275.365 54.0861C276.017 54.7209 277.021 55.0383 278.376 55.0383H284.166V56.5309H278.376Z" fill="#00797D"/>
<path d="M293.261 56.814C290.876 56.814 289.057 56.2564 287.805 55.1412C286.57 54.0261 285.952 52.3962 285.952 50.2517V44.7703C285.952 42.6601 286.553 41.0474 287.754 39.9322C288.972 38.7999 290.722 38.2337 293.003 38.2337C294.496 38.2337 295.774 38.4739 296.838 38.9543C297.902 39.4175 298.776 40.1467 299.463 41.1417L298.15 42.0939C297.55 41.2876 296.838 40.6957 296.014 40.3182C295.208 39.9236 294.23 39.7263 293.081 39.7263C291.365 39.7263 290.053 40.1552 289.143 41.0131C288.251 41.8709 287.805 43.1233 287.805 44.7703V50.2517C287.805 51.9159 288.26 53.1768 289.169 54.0347C290.095 54.8925 291.451 55.3214 293.235 55.3214C294.419 55.3214 295.422 55.1241 296.246 54.7295C297.069 54.3349 297.781 53.7173 298.382 52.8766L299.694 53.8802C298.922 54.9096 298.03 55.6559 297.018 56.1191C296.006 56.5824 294.753 56.814 293.261 56.814Z" fill="#00797D"/>
<path d="M309.16 56.814C307.033 56.814 305.36 56.3593 304.142 55.45C302.941 54.5236 302.341 53.254 302.341 51.6414V38.5168H304.194V51.6414C304.194 52.7908 304.631 53.6915 305.506 54.3435C306.381 54.9954 307.599 55.3214 309.16 55.3214C310.722 55.3214 311.94 54.9954 312.815 54.3435C313.69 53.6915 314.127 52.7908 314.127 51.6414V38.5168H315.98V51.6414C315.98 53.254 315.371 54.5236 314.153 55.45C312.952 56.3593 311.288 56.814 309.16 56.814Z" fill="#00797D"/>
<path d="M325.397 56.5309C323.424 56.5309 321.957 56.0934 320.996 55.2184C320.053 54.3263 319.581 52.971 319.581 51.1524V38.5168H321.434V51.1524C321.434 52.4734 321.751 53.4513 322.386 54.0861C323.038 54.7209 324.041 55.0383 325.397 55.0383H331.187V56.5309H325.397Z" fill="#00797D"/>
<path d="M344.612 50.7407H336.48L334.704 56.5309H332.851L337.509 41.4763C337.886 40.2582 338.29 39.4175 338.719 38.9543C339.165 38.4739 339.774 38.2337 340.546 38.2337C341.318 38.2337 341.927 38.4739 342.373 38.9543C342.819 39.4175 343.231 40.2582 343.608 41.4763L348.266 56.5309H346.387L344.612 50.7407ZM344.174 49.2995L341.781 41.502C341.592 40.9187 341.412 40.5155 341.24 40.2925C341.069 40.0695 340.837 39.9579 340.546 39.9579C340.271 39.9579 340.048 40.0695 339.877 40.2925C339.705 40.5155 339.525 40.9187 339.336 41.502L336.943 49.2995H344.174Z" fill="#00797D"/>
<path d="M353.093 40.0094H347.251V38.5168H360.788V40.0094H354.946V56.5309H353.093V40.0094Z" fill="#00797D"/>
<path d="M369.277 56.814C366.996 56.814 365.246 56.2564 364.027 55.1412C362.809 54.0089 362.2 52.3791 362.2 50.2517V44.796C362.2 42.6686 362.809 41.0474 364.027 39.9322C365.246 38.7999 366.996 38.2337 369.277 38.2337C371.559 38.2337 373.309 38.7999 374.527 39.9322C375.745 41.0474 376.354 42.6686 376.354 44.796V50.2517C376.354 52.3791 375.745 54.0089 374.527 55.1412C373.309 56.2564 371.559 56.814 369.277 56.814ZM369.277 55.3214C370.959 55.3214 372.245 54.8839 373.137 54.0089C374.047 53.1339 374.501 51.8815 374.501 50.2517V44.796C374.501 43.1662 374.047 41.9138 373.137 41.0388C372.245 40.1638 370.959 39.7263 369.277 39.7263C367.596 39.7263 366.301 40.1638 365.391 41.0388C364.499 41.9138 364.053 43.1662 364.053 44.796V50.2517C364.053 51.8815 364.499 53.1339 365.391 54.0089C366.301 54.8839 367.596 55.3214 369.277 55.3214Z" fill="#00797D"/>
<path d="M394 56.5309H392.018L390.783 51.8987C390.543 51.0066 390.268 50.3117 389.96 49.8142C389.651 49.3167 389.222 48.9564 388.673 48.7334C388.141 48.4932 387.412 48.3731 386.486 48.3731H382.317V56.5309H380.464V38.5168H388.184C389.865 38.5168 391.143 38.9371 392.018 39.7778C392.911 40.6185 393.357 41.8022 393.357 43.3292C393.357 44.6159 393.048 45.6452 392.43 46.4173C391.83 47.1722 390.972 47.6439 389.857 47.8327C390.612 48.1072 391.195 48.5618 391.607 49.1966C392.036 49.8314 392.413 50.7321 392.739 51.8987L394 56.5309ZM387.978 46.8805C389.093 46.8805 389.96 46.5803 390.577 45.9798C391.195 45.3793 391.504 44.5387 391.504 43.4578C391.504 42.3598 391.195 41.5106 390.577 40.9101C389.96 40.3096 389.093 40.0094 387.978 40.0094H382.317V46.8805H387.978Z" fill="#00797D"/>
<g filter="url(#filter0_i_1118_757)">
<path d="M175.437 55.8397C173.018 55.8397 171.174 55.2907 169.904 54.1927C168.635 53.0775 168 51.4391 168 49.2774V43.7703C168 41.6086 168.635 39.9787 169.904 38.8807C171.174 37.7656 173.018 37.208 175.437 37.208C177.119 37.208 178.491 37.4911 179.555 38.0572C180.636 38.6062 181.493 39.4383 182.128 40.5535L179.529 42.3549C178.997 41.5314 178.44 40.9395 177.856 40.5792C177.29 40.2189 176.484 40.0388 175.437 40.0388C174.116 40.0388 173.147 40.3562 172.529 40.991C171.929 41.6086 171.629 42.535 171.629 43.7703V49.2774C171.629 50.5127 171.929 51.4477 172.529 52.0825C173.147 52.7001 174.116 53.0089 175.437 53.0089C176.57 53.0089 177.445 52.8202 178.062 52.4428C178.697 52.0482 179.263 51.422 179.761 50.5642L182.334 52.4685C181.785 53.2577 181.219 53.8925 180.636 54.3728C180.052 54.8532 179.34 55.2221 178.5 55.4794C177.676 55.7196 176.655 55.8397 175.437 55.8397Z" fill="white"/>
<path d="M191.746 55.8397C189.361 55.8397 187.534 55.2907 186.264 54.1927C185.012 53.0775 184.386 51.4391 184.386 49.2774V43.7703C184.386 41.6086 185.012 39.9787 186.264 38.8807C187.534 37.7656 189.361 37.208 191.746 37.208C194.13 37.208 195.949 37.7656 197.201 38.8807C198.471 39.9787 199.106 41.6086 199.106 43.7703V49.2774C199.106 51.4391 198.471 53.0775 197.201 54.1927C195.949 55.2907 194.13 55.8397 191.746 55.8397ZM191.746 53.0089C192.947 53.0089 193.864 52.6915 194.499 52.0567C195.151 51.4048 195.477 50.4784 195.477 49.2774V43.7703C195.477 42.5693 195.151 41.6515 194.499 41.0167C193.864 40.3648 192.947 40.0388 191.746 40.0388C190.545 40.0388 189.618 40.3648 188.966 41.0167C188.332 41.6515 188.014 42.5693 188.014 43.7703V49.2774C188.014 50.4784 188.332 51.4048 188.966 52.0567C189.618 52.6915 190.545 53.0089 191.746 53.0089Z" fill="white"/>
<path d="M208.361 55.8397C207.126 55.8397 206.088 55.7025 205.247 55.428C204.423 55.1535 203.729 54.776 203.162 54.2956C202.596 53.8153 202.013 53.1719 201.412 52.3656L203.857 50.3325C204.561 51.3104 205.238 52.0053 205.89 52.417C206.559 52.8116 207.383 53.0089 208.361 53.0089C209.716 53.0089 210.703 52.8116 211.32 52.417C211.938 52.0224 212.247 51.3877 212.247 50.5127C212.247 50.0666 212.101 49.7063 211.809 49.4318C211.518 49.1402 211.011 48.8743 210.291 48.6341C209.587 48.3939 208.532 48.128 207.126 47.8363C205.479 47.4932 204.252 46.8841 203.445 46.0092C202.656 45.117 202.262 43.9333 202.262 42.4578C202.262 41.3941 202.528 40.4677 203.059 39.6785C203.608 38.8893 204.381 38.2803 205.376 37.8514C206.371 37.4225 207.529 37.208 208.85 37.208C210.565 37.208 211.929 37.4654 212.941 37.98C213.954 38.4776 214.777 39.2153 215.412 40.1932L213.019 42.149C212.487 41.6172 212.041 41.214 211.68 40.9395C211.337 40.6478 210.943 40.4248 210.497 40.2704C210.051 40.116 209.502 40.0388 208.85 40.0388C207.872 40.0388 207.134 40.2532 206.637 40.6821C206.139 41.1111 205.89 41.7287 205.89 42.535C205.89 43.2899 206.208 43.8475 206.842 44.2078C207.477 44.5509 208.292 44.834 209.287 45.057C210.763 45.3658 211.938 45.6832 212.813 46.0092C213.688 46.3351 214.417 46.8584 215 47.579C215.584 48.2995 215.875 49.286 215.875 50.5384C215.875 52.3227 215.249 53.6523 213.997 54.5272C212.761 55.4022 210.883 55.8397 208.361 55.8397Z" fill="white"/>
<path d="M222.264 40.3476H216.834V37.5168H231.322V40.3476H225.893V55.5309H222.264V40.3476Z" fill="white"/>
<path d="M248.019 55.814C245.635 55.814 243.816 55.2564 242.564 54.1412C241.328 53.0261 240.711 51.3962 240.711 49.2517V43.7703C240.711 41.6601 241.311 40.0474 242.512 38.9322C243.73 37.7999 245.48 37.2337 247.762 37.2337C249.255 37.2337 250.533 37.4739 251.596 37.9543C252.66 38.4175 253.535 39.1467 254.221 40.1417L252.909 41.0939C252.308 40.2876 251.596 39.6957 250.773 39.3182C249.966 38.9236 248.989 38.7263 247.839 38.7263C246.123 38.7263 244.811 39.1552 243.902 40.0131C243.01 40.8709 242.564 42.1233 242.564 43.7703V49.2517C242.564 50.9159 243.018 52.1768 243.927 53.0347C244.854 53.8925 246.209 54.3214 247.994 54.3214C249.177 54.3214 250.181 54.1241 251.004 53.7295C251.828 53.3349 252.54 52.7173 253.14 51.8766L254.453 52.8802C253.681 53.9096 252.789 54.6559 251.776 55.1191C250.764 55.5824 249.512 55.814 248.019 55.814Z" fill="white"/>
<path d="M267.831 49.7407H259.698L257.923 55.5309H256.07L260.728 40.4763C261.105 39.2582 261.508 38.4175 261.937 37.9543C262.383 37.4739 262.992 37.2337 263.764 37.2337C264.537 37.2337 265.146 37.4739 265.592 37.9543C266.038 38.4175 266.449 39.2582 266.827 40.4763L271.485 55.5309H269.606L267.831 49.7407ZM267.393 48.2995L265 40.502C264.811 39.9187 264.631 39.5155 264.459 39.2925C264.288 39.0695 264.056 38.9579 263.764 38.9579C263.49 38.9579 263.267 39.0695 263.095 39.2925C262.924 39.5155 262.744 39.9187 262.555 40.502L260.162 48.2995H267.393Z" fill="white"/>
<path d="M279.376 55.5309C277.403 55.5309 275.936 55.0934 274.976 54.2184C274.032 53.3263 273.56 51.971 273.56 50.1524V37.5168H275.413V50.1524C275.413 51.4734 275.731 52.4513 276.365 53.0861C277.017 53.7209 278.021 54.0383 279.376 54.0383H285.166V55.5309H279.376Z" fill="white"/>
<path d="M294.261 55.814C291.876 55.814 290.057 55.2564 288.805 54.1412C287.57 53.0261 286.952 51.3962 286.952 49.2517V43.7703C286.952 41.6601 287.553 40.0474 288.754 38.9322C289.972 37.7999 291.722 37.2337 294.003 37.2337C295.496 37.2337 296.774 37.4739 297.838 37.9543C298.902 38.4175 299.776 39.1467 300.463 40.1417L299.15 41.0939C298.55 40.2876 297.838 39.6957 297.014 39.3182C296.208 38.9236 295.23 38.7263 294.081 38.7263C292.365 38.7263 291.053 39.1552 290.143 40.0131C289.251 40.8709 288.805 42.1233 288.805 43.7703V49.2517C288.805 50.9159 289.26 52.1768 290.169 53.0347C291.095 53.8925 292.451 54.3214 294.235 54.3214C295.419 54.3214 296.422 54.1241 297.246 53.7295C298.069 53.3349 298.781 52.7173 299.382 51.8766L300.694 52.8802C299.922 53.9096 299.03 54.6559 298.018 55.1191C297.006 55.5824 295.753 55.814 294.261 55.814Z" fill="white"/>
<path d="M310.16 55.814C308.033 55.814 306.36 55.3593 305.142 54.45C303.941 53.5236 303.341 52.254 303.341 50.6414V37.5168H305.194V50.6414C305.194 51.7908 305.631 52.6915 306.506 53.3435C307.381 53.9954 308.599 54.3214 310.16 54.3214C311.722 54.3214 312.94 53.9954 313.815 53.3435C314.69 52.6915 315.127 51.7908 315.127 50.6414V37.5168H316.98V50.6414C316.98 52.254 316.371 53.5236 315.153 54.45C313.952 55.3593 312.288 55.814 310.16 55.814Z" fill="white"/>
<path d="M326.397 55.5309C324.424 55.5309 322.957 55.0934 321.996 54.2184C321.053 53.3263 320.581 51.971 320.581 50.1524V37.5168H322.434V50.1524C322.434 51.4734 322.751 52.4513 323.386 53.0861C324.038 53.7209 325.041 54.0383 326.397 54.0383H332.187V55.5309H326.397Z" fill="white"/>
<path d="M345.612 49.7407H337.48L335.704 55.5309H333.851L338.509 40.4763C338.886 39.2582 339.29 38.4175 339.719 37.9543C340.165 37.4739 340.774 37.2337 341.546 37.2337C342.318 37.2337 342.927 37.4739 343.373 37.9543C343.819 38.4175 344.231 39.2582 344.608 40.4763L349.266 55.5309H347.387L345.612 49.7407ZM345.174 48.2995L342.781 40.502C342.592 39.9187 342.412 39.5155 342.24 39.2925C342.069 39.0695 341.837 38.9579 341.546 38.9579C341.271 38.9579 341.048 39.0695 340.877 39.2925C340.705 39.5155 340.525 39.9187 340.336 40.502L337.943 48.2995H345.174Z" fill="white"/>
<path d="M354.093 39.0094H348.251V37.5168H361.788V39.0094H355.946V55.5309H354.093V39.0094Z" fill="white"/>
<path d="M370.277 55.814C367.996 55.814 366.246 55.2564 365.027 54.1412C363.809 53.0089 363.2 51.3791 363.2 49.2517V43.796C363.2 41.6686 363.809 40.0474 365.027 38.9322C366.246 37.7999 367.996 37.2337 370.277 37.2337C372.559 37.2337 374.309 37.7999 375.527 38.9322C376.745 40.0474 377.354 41.6686 377.354 43.796V49.2517C377.354 51.3791 376.745 53.0089 375.527 54.1412C374.309 55.2564 372.559 55.814 370.277 55.814ZM370.277 54.3214C371.959 54.3214 373.245 53.8839 374.137 53.0089C375.047 52.1339 375.501 50.8815 375.501 49.2517V43.796C375.501 42.1662 375.047 40.9138 374.137 40.0388C373.245 39.1638 371.959 38.7263 370.277 38.7263C368.596 38.7263 367.301 39.1638 366.391 40.0388C365.499 40.9138 365.053 42.1662 365.053 43.796V49.2517C365.053 50.8815 365.499 52.1339 366.391 53.0089C367.301 53.8839 368.596 54.3214 370.277 54.3214Z" fill="white"/>
<path d="M395 55.5309H393.018L391.783 50.8987C391.543 50.0066 391.268 49.3117 390.96 48.8142C390.651 48.3167 390.222 47.9564 389.673 47.7334C389.141 47.4932 388.412 47.3731 387.486 47.3731H383.317V55.5309H381.464V37.5168H389.184C390.865 37.5168 392.143 37.9371 393.018 38.7778C393.911 39.6185 394.357 40.8022 394.357 42.3292C394.357 43.6159 394.048 44.6452 393.43 45.4173C392.83 46.1722 391.972 46.6439 390.857 46.8327C391.612 47.1072 392.195 47.5618 392.607 48.1966C393.036 48.8314 393.413 49.7321 393.739 50.8987L395 55.5309ZM388.978 45.8805C390.093 45.8805 390.96 45.5803 391.577 44.9798C392.195 44.3793 392.504 43.5387 392.504 42.4578C392.504 41.3598 392.195 40.5106 391.577 39.9101C390.96 39.3096 390.093 39.0094 388.978 39.0094H383.317V45.8805H388.978Z" fill="white"/>
</g>
</g>
<defs>
<filter id="filter0_i_1118_757" x="168" y="37.208" width="227" height="22.6318" filterUnits="userSpaceOnUse" color-interpolation-filters="sRGB">
<feFlood flood-opacity="0" result="BackgroundImageFix"/>
<feBlend mode="normal" in="SourceGraphic" in2="BackgroundImageFix" result="shape"/>
<feColorMatrix in="SourceAlpha" type="matrix" values="0 0 0 0 0 0 0 0 0 0 0 0 0 0 0 0 0 0 127 0" result="hardAlpha"/>
<feOffset dy="4"/>
<feGaussianBlur stdDeviation="2"/>
<feComposite in2="hardAlpha" operator="arithmetic" k2="-1" k3="1"/>
<feColorMatrix type="matrix" values="0 0 0 0 1 0 0 0 0 1 0 0 0 0 1 0 0 0 1 0"/>
<feBlend mode="normal" in2="shape" result="effect1_innerShadow_1118_757"/>
</filter>
<linearGradient id="paint0_linear_1118_757" x1="264" y1="-2.92485e-07" x2="264" y2="94" gradientUnits="userSpaceOnUse">
<stop stop-color="#00DB85"/>
<stop offset="1" stop-color="#00BBF4"/>
</linearGradient>
<linearGradient id="paint1_linear_1118_757" x1="514" y1="-98" x2="514" y2="76" gradientUnits="userSpaceOnUse">
<stop offset="0.583333" stop-color="#00D88F"/>
<stop offset="1" stop-color="#02A2CE"/>
</linearGradient>
<linearGradient id="paint2_linear_1118_757" x1="200.5" y1="7" x2="200.5" y2="170" gradientUnits="userSpaceOnUse">
<stop stop-color="#00CB82"/>
<stop offset="0.471264" stop-color="#00B3DE"/>
</linearGradient>
<linearGradient id="paint3_linear_1118_757" x1="47.5" y1="53" x2="47.5" y2="124" gradientUnits="userSpaceOnUse">
<stop stop-color="#00CB82"/>
<stop offset="0.471264" stop-color="#00B3DE"/>
</linearGradient>
<clipPath id="clip0_1118_757">
<rect width="562" height="94" rx="14" fill="white"/>
</clipPath>
</defs>
</svg>
